<svg width="100" height="100" viewBox="0 0 100 100" fill="none" xmlns="http://www.w3.org/2000/svg">
<g clip-path="url(#clip0_1108_591)">
<path d="M81.9702 8.19097C82.3029 8.33229 82.6358 8.47319 82.9688 8.61368C83.6673 8.90884 84.3648 9.20607 85.0617 9.50475C86.1272 9.96017 87.197 10.4046 88.2683 10.846C88.4426 10.9178 88.6168 10.9896 88.7964 11.0636C89.1445 11.207 89.4926 11.3504 89.8407 11.4938C92.1083 12.4293 94.3735 13.3711 96.6309 14.3311C96.7876 14.3973 96.9444 14.4635 97.1059 14.5317C99.257 15.4544 99.257 15.4544 99.8351 16.5126C100.22 17.6316 100.103 18.8768 100.094 20.0484C100.094 20.3638 100.095 20.6792 100.096 20.9945C100.098 21.86 100.095 22.7253 100.091 23.5907C100.087 24.5244 100.088 25.4581 100.089 26.3917C100.089 28.009 100.087 29.6263 100.083 31.2435C100.076 33.5818 100.074 35.9201 100.073 38.2583C100.072 42.0521 100.066 45.8458 100.059 49.6395C100.052 53.3247 100.046 57.0099 100.043 60.6951C100.043 60.9222 100.043 61.1494 100.042 61.3835C100.041 62.5231 100.04 63.6627 100.039 64.8023C100.031 74.2563 100.017 83.7102 100 93.1641C90.3965 93.1641 80.793 93.1641 70.8984 93.1641C70.8984 79.4356 70.8984 65.7071 70.8984 51.5626C71.6719 51.3692 71.6719 51.3692 72.4609 51.1719C73.0159 50.781 73.3643 50.506 73.5241 49.8282C73.5637 49.3857 73.5678 48.955 73.5603 48.5108C73.5608 48.3498 73.5613 48.1887 73.5618 48.0228C73.5616 47.6833 73.559 47.3438 73.5541 47.0044C73.5474 46.486 73.5501 45.9683 73.5539 45.4499C73.5525 45.1193 73.5506 44.7887 73.5481 44.4581C73.5491 44.3038 73.5501 44.1496 73.5511 43.9907C73.5304 43.018 73.3854 42.503 72.6563 41.7969C72.0755 41.5066 71.4819 41.5698 70.845 41.5688C70.7044 41.5682 70.5637 41.5675 70.4188 41.5668C70.121 41.5658 69.8232 41.5654 69.5253 41.5654C69.0705 41.565 68.6158 41.5615 68.161 41.5577C67.8716 41.5572 67.5822 41.5568 67.2928 41.5566C67.1571 41.5552 67.0213 41.5538 66.8815 41.5523C66.1706 41.5557 65.6344 41.5858 65.0391 41.9922C64.7003 42.3893 64.7003 42.3893 64.4531 42.7735C63.3248 42.6549 62.37 42.2363 61.3365 41.7969C61.1522 41.7196 60.9679 41.6423 60.7781 41.5627C60.3903 41.3998 60.0027 41.2362 59.6154 41.0721C59.0202 40.82 58.4243 40.5698 57.8281 40.3199C57.4513 40.1613 57.0746 40.0026 56.6979 39.8438C56.4293 39.7309 56.4293 39.7309 56.1554 39.6157C55.991 39.5459 55.8267 39.4762 55.6573 39.4043C55.5121 39.3429 55.3669 39.2815 55.2173 39.2182C54.8828 39.0626 54.8828 39.0626 54.6875 38.8672C54.6672 38.5916 54.6602 38.315 54.6588 38.0386C54.6574 37.8599 54.656 37.6811 54.6545 37.4969C54.654 37.2991 54.6535 37.1014 54.6529 36.8977C54.6517 36.6906 54.6504 36.4835 54.649 36.2702C54.6452 35.5813 54.6429 34.8923 54.641 34.2034C54.6402 33.9685 54.6394 33.7336 54.6386 33.4916C54.6345 32.2475 54.6317 31.0033 54.6299 29.7592C54.6277 28.4744 54.621 27.1896 54.6132 25.9047C54.6081 24.917 54.6065 23.9292 54.6058 22.9415C54.6048 22.468 54.6026 21.9944 54.5989 21.5209C54.5942 20.857 54.5944 20.1933 54.5957 19.5293C54.5932 19.3344 54.5907 19.1394 54.5881 18.9385C54.5988 17.5035 54.8828 16.4145 55.908 15.3749C56.584 14.9524 57.2724 14.6495 58.0109 14.3532C58.1655 14.2896 58.3202 14.226 58.4795 14.1605C58.989 13.9514 59.4994 13.7445 60.0098 13.5376C60.3672 13.3913 60.7245 13.2449 61.0818 13.0982C61.8276 12.7923 62.5737 12.4871 63.32 12.1825C64.9549 11.5144 66.5861 10.837 68.2173 10.1598C68.7091 9.95561 69.2011 9.7518 69.6932 9.54809C69.9263 9.45142 69.9263 9.45142 70.1641 9.3528C70.4713 9.22566 70.7787 9.09902 71.0863 8.97289C71.8767 8.6475 72.6592 8.31077 73.4362 7.95455C76.7806 6.43654 78.6771 6.75573 81.9702 8.19097ZM64.6729 22.8394C64.0481 23.9848 64.2144 25.3263 64.2109 26.5942C64.209 27.0108 64.2029 27.4273 64.1968 27.8439C64.1955 28.1118 64.1945 28.3797 64.1937 28.6477C64.1919 28.8892 64.1901 29.1307 64.1882 29.3796C64.2833 30.3336 64.5319 31.094 65.1749 31.8185C65.8271 32.1268 66.4552 32.1188 67.1623 32.116C67.3106 32.117 67.4589 32.118 67.6118 32.1191C67.9248 32.1203 68.2379 32.1201 68.5509 32.1184C69.0286 32.1168 69.5057 32.1224 69.9833 32.1286C70.2881 32.1289 70.5929 32.1288 70.8977 32.1282C71.0397 32.1304 71.1818 32.1326 71.3281 32.1348C72.281 32.1218 72.7693 31.9285 73.4375 31.2501C73.7585 30.6081 73.6731 29.8953 73.6794 29.1894C73.6809 29.0231 73.6825 28.8569 73.6841 28.6857C73.6868 28.3335 73.6889 27.9814 73.6905 27.6292C73.6938 27.0916 73.7024 26.5542 73.711 26.0167C73.713 25.6745 73.7147 25.3323 73.716 24.9901C73.7194 24.8298 73.7228 24.6694 73.7263 24.5042C73.7235 23.7557 73.6837 23.3327 73.3102 22.6691C72.1067 21.6105 70.5639 21.81 69.0552 21.814C68.8204 21.8109 68.5856 21.8077 68.3437 21.8045C66.3245 21.7897 66.3245 21.7897 64.6729 22.8394ZM81.8359 22.461C81.101 23.3553 80.9382 24.0731 80.9509 25.2015C80.9502 25.3488 80.9494 25.4961 80.9487 25.6478C80.9481 25.9577 80.9496 26.2676 80.9528 26.5775C80.957 27.0496 80.9529 27.521 80.9479 27.9931C80.9484 28.2954 80.9494 28.5978 80.9509 28.9002C80.9494 29.04 80.9478 29.1798 80.9461 29.3238C80.9645 30.3144 81.2108 30.8795 81.8359 31.6407C82.5533 32.1189 83.1091 32.0977 83.9401 32.1038C84.0887 32.1055 84.2373 32.1073 84.3904 32.1091C84.7046 32.112 85.0188 32.1137 85.3331 32.1144C85.8125 32.1167 86.2914 32.1263 86.7706 32.1362C87.0763 32.1381 87.382 32.1395 87.6877 32.1404C87.8303 32.1442 87.973 32.148 88.12 32.152C88.8976 32.1451 89.2227 32.0601 89.832 31.5606C90.4885 30.7353 90.4666 30.108 90.4762 29.0864C90.4778 28.9293 90.4794 28.7722 90.481 28.6104C90.4837 28.2774 90.4858 27.9445 90.4873 27.6115C90.4907 27.1043 90.4993 26.5974 90.5079 26.0903C90.5099 25.7666 90.5115 25.4428 90.5129 25.1191C90.5163 24.9683 90.5197 24.8175 90.5232 24.6621C90.5192 23.6528 90.3525 23.0413 89.6484 22.2657C88.4453 21.6951 87.1562 21.8105 85.8521 21.814C85.6173 21.8109 85.3825 21.8077 85.1406 21.8045C83.3992 21.7944 83.3992 21.7944 81.8359 22.461ZM81.6406 41.9922C81.0581 42.8718 80.9679 43.6602 80.9769 44.69C80.9763 44.833 80.9758 44.9759 80.9752 45.1232C80.9748 45.4239 80.9758 45.7246 80.9783 46.0253C80.9814 46.4831 80.9783 46.9406 80.9746 47.3984C80.975 47.6919 80.9757 47.9854 80.9769 48.2789C80.9757 48.4144 80.9745 48.5499 80.9733 48.6896C80.9862 49.5938 81.1275 50.2279 81.6406 50.9766C82.8126 51.7669 84.0669 51.658 85.4234 51.6497C85.8388 51.648 86.2538 51.6536 86.6692 51.6598C86.9359 51.6601 87.2027 51.66 87.4695 51.6594C87.7096 51.6598 87.9496 51.6602 88.197 51.6605C89.1114 51.5268 89.7308 51.1764 90.3031 50.4428C90.4975 49.7628 90.4973 49.0859 90.5022 48.3841C90.5039 48.2276 90.5057 48.0711 90.5075 47.9099C90.5103 47.5792 90.5121 47.2486 90.5128 46.918C90.5151 46.4142 90.5247 45.9109 90.5346 45.4072C90.5364 45.0852 90.5379 44.7632 90.5388 44.4413C90.5426 44.2917 90.5464 44.1421 90.5504 43.988C90.5438 43.1984 90.4637 42.7192 89.959 42.0955C89.1955 41.35 88.6693 41.3729 87.6488 41.3666C87.5086 41.3655 87.3684 41.3644 87.224 41.3633C86.927 41.3614 86.63 41.3601 86.3329 41.3594C85.8802 41.3575 85.4277 41.3514 84.9751 41.3453C84.6863 41.344 84.3975 41.343 84.1087 41.3422C83.974 41.3398 83.8393 41.3374 83.7005 41.3349C82.8471 41.3388 82.2995 41.4394 81.6406 41.9922Z" fill="#0B0F14"/>
<path d="M48.1262 39.3006C48.2798 39.365 48.4333 39.4294 48.5915 39.4958C49.0945 39.7073 49.596 39.922 50.0977 40.1367C50.4516 40.2863 50.8057 40.4355 51.1599 40.5846C51.8981 40.8955 52.6359 41.2074 53.3734 41.5199C54.9871 42.2026 56.6073 42.8695 58.227 43.5378C59.2187 43.9478 60.209 44.3608 61.1996 44.7734C62.0909 45.1441 62.9841 45.5093 63.8794 45.8702C64.2497 46.022 64.62 46.1738 64.9902 46.3257C65.147 46.387 65.3038 46.4483 65.4654 46.5115C66.428 46.9114 66.9962 47.3424 67.5781 48.2422C67.9349 49.3978 68.0241 50.4348 68.0157 51.6387C68.0161 51.8167 68.0164 51.9946 68.0168 52.178C68.0174 52.7728 68.0152 53.3675 68.0131 53.9623C68.013 54.3967 68.013 54.831 68.0133 55.2653C68.0133 56.4266 68.0111 57.5879 68.0083 58.7492C68.0061 59.8395 68.006 60.9299 68.0057 62.0203C68.0037 65.2076 67.9982 68.3948 67.9932 71.5821C67.9851 78.7041 67.9771 85.8262 67.9688 93.1641C52.9512 93.1641 37.9336 93.1641 22.461 93.1641C22.4448 85.9453 22.4287 78.7266 22.4121 71.2891C22.405 69.0091 22.3979 66.729 22.3906 64.3799C22.387 61.5975 22.387 61.5975 22.3864 60.2952C22.3857 59.385 22.3827 58.4747 22.3785 57.5645C22.3731 56.4033 22.3715 55.2422 22.3726 54.081C22.3724 53.6549 22.3708 53.2288 22.3678 52.8027C22.3639 52.2267 22.3649 51.651 22.367 51.075C22.3647 50.9086 22.3625 50.7422 22.3601 50.5708C22.3713 49.4461 22.6154 48.5983 23.2422 47.6563C23.8512 47.0663 24.4658 46.7244 25.2426 46.3959C25.4468 46.3088 25.6511 46.2217 25.8615 46.132C26.0848 46.0388 26.308 45.9456 26.5381 45.8496C26.7782 45.7482 27.0182 45.6467 27.2582 45.5451C30.112 44.341 32.9811 43.173 35.8487 42.0022C36.9805 41.5398 38.1107 41.0738 39.2403 40.6059C39.5486 40.4784 39.8569 40.3508 40.1652 40.2232C40.605 40.0413 41.0446 39.8592 41.484 39.6765C41.8839 39.5102 42.284 39.3447 42.6842 39.1793C43.0226 39.0388 43.0226 39.0388 43.3679 38.8955C45.0748 38.2345 46.4888 38.5896 48.1262 39.3006ZM32.4642 54.6174C32.1036 55.3165 32.1352 56.0171 32.135 56.7864C32.1335 56.952 32.1321 57.1177 32.1305 57.2883C32.1284 57.6382 32.1279 57.988 32.1287 58.3379C32.1289 58.8721 32.1208 59.4058 32.1121 59.94C32.1111 60.2804 32.1106 60.6208 32.1106 60.9612C32.1058 61.1999 32.1058 61.1999 32.1009 61.4434C32.1111 62.2869 32.1492 62.5993 32.6977 63.2798C33.4863 63.8915 34.0398 63.901 35.0075 63.9069C35.1477 63.908 35.2879 63.9091 35.4323 63.9103C35.7293 63.9121 36.0263 63.9134 36.3233 63.9141C36.776 63.916 37.2286 63.9221 37.6812 63.9282C37.97 63.9295 38.2588 63.9305 38.5475 63.9313C38.7496 63.9349 38.7496 63.9349 38.9558 63.9386C39.8066 63.9347 40.3488 63.8182 41.0156 63.2813C41.568 62.5737 41.4695 61.6929 41.4719 60.8345C41.4732 60.6732 41.4745 60.5119 41.4758 60.3457C41.4778 60.0051 41.4787 59.6644 41.4786 59.3238C41.4795 58.8037 41.4866 58.284 41.494 57.7641C41.4951 57.4326 41.4959 57.1011 41.4963 56.7696C41.4991 56.6147 41.5019 56.4599 41.5048 56.3003C41.4986 55.5495 41.4585 55.1637 41.0588 54.5086C39.9426 53.4614 38.7017 53.6448 37.2516 53.6493C36.8307 53.6499 36.41 53.6453 35.989 53.6404C35.7198 53.6399 35.4506 53.6398 35.1814 53.64C34.8161 53.6391 34.8161 53.6391 34.4433 53.6382C33.5666 53.7357 33.1032 54.0294 32.4642 54.6174ZM49.0235 54.8828C48.7918 55.5777 48.7928 56.2139 48.7885 56.9374C48.7874 57.0812 48.7862 57.225 48.7851 57.3731C48.7832 57.6774 48.782 57.9816 48.7812 58.2858C48.7793 58.7487 48.7733 59.2115 48.7671 59.6745C48.7658 59.9706 48.7648 60.2668 48.7641 60.5629C48.7616 60.7003 48.7592 60.8377 48.7567 60.9792C48.7608 61.8919 48.9072 62.5196 49.4141 63.2813C50.4801 64.168 51.8409 63.969 53.1537 63.9651C53.5992 63.9649 54.0441 63.973 54.4895 63.9816C54.775 63.9827 55.0605 63.9832 55.3459 63.9832C55.7324 63.9853 55.7324 63.9853 56.1268 63.9874C57.0473 63.8314 57.3549 63.5441 58.0078 62.8906C58.3236 62.2592 58.2433 61.5668 58.2497 60.8727C58.2513 60.7108 58.2528 60.5489 58.2545 60.3822C58.2572 60.0392 58.2593 59.6962 58.2608 59.3532C58.2641 58.8298 58.2727 58.3065 58.2813 57.7831C58.2833 57.4499 58.285 57.1166 58.2863 56.7833C58.2897 56.6272 58.2931 56.4712 58.2967 56.3103C58.2937 55.5554 58.2571 55.1668 57.8561 54.5077C56.7384 53.4624 55.4989 53.6448 54.0485 53.6493C53.6275 53.6499 53.2068 53.6453 52.7859 53.6404C52.5167 53.6399 52.2475 53.6398 51.9783 53.64C51.613 53.6391 51.613 53.6391 51.2402 53.6382C50.2984 53.7429 49.6278 54.1576 49.0235 54.8828ZM32.4219 74.0235C32.1009 74.6654 32.1863 75.3782 32.18 76.0842C32.1785 76.2504 32.1769 76.4166 32.1753 76.5878C32.1726 76.94 32.1705 77.2921 32.1689 77.6443C32.1656 78.1819 32.157 78.7193 32.1484 79.2568C32.1464 79.599 32.1447 79.9412 32.1434 80.2834C32.14 80.4437 32.1366 80.6041 32.1331 80.7693C32.1359 81.5178 32.1757 81.9408 32.5492 82.6044C33.7527 83.663 35.2955 83.4635 36.8042 83.4595C37.039 83.4626 37.2738 83.4658 37.5157 83.469C39.4912 83.4867 39.4912 83.4867 41.1427 82.5075C41.5324 81.8033 41.4938 81.1078 41.491 80.323C41.492 80.1574 41.493 79.9917 41.4941 79.8211C41.4953 79.4712 41.495 79.1214 41.4934 78.7716C41.4917 78.2374 41.4973 77.7036 41.5035 77.1694C41.5039 76.829 41.5037 76.4886 41.5032 76.1482C41.5054 75.9891 41.5075 75.83 41.5098 75.666C41.5003 74.8858 41.4635 74.504 41.034 73.8296C40.3164 73.1416 39.6834 73.2051 38.7352 73.1957C38.5864 73.1941 38.4375 73.1925 38.2841 73.1909C37.9687 73.1882 37.6533 73.1861 37.3379 73.1846C36.8569 73.1812 36.3761 73.1726 35.8952 73.164C35.5886 73.162 35.282 73.1604 34.9754 73.159C34.8322 73.1556 34.6889 73.1522 34.5413 73.1487C33.5818 73.1527 33.0936 73.3385 32.4219 74.0235ZM49.2188 74.0235C48.5808 75.1486 48.7628 76.5069 48.7665 77.7631C48.7671 78.2084 48.7625 78.6536 48.7576 79.0989C48.7571 79.3844 48.757 79.6698 48.7572 79.9553C48.7566 80.213 48.756 80.4707 48.7554 80.7361C48.8502 81.6604 49.109 82.3318 49.7925 82.9712C50.9306 83.6265 52.3063 83.4419 53.5767 83.4473C53.8132 83.4513 54.0498 83.4553 54.2935 83.4595C56.0432 83.4771 56.0432 83.4771 57.6172 82.8125C58.2705 81.9872 58.289 81.2073 58.281 80.1941C58.2818 79.9591 58.2818 79.9591 58.2827 79.7193C58.2831 79.389 58.282 79.0587 58.2795 78.7284C58.2764 78.2243 58.2795 77.7205 58.2832 77.2164C58.2829 76.8947 58.2821 76.5729 58.281 76.2512C58.2821 76.1013 58.2833 75.9513 58.2846 75.7968C58.273 74.911 58.1716 74.333 57.6172 73.6328C56.8987 73.1538 56.345 73.1791 55.513 73.1766C55.3644 73.1753 55.2158 73.174 55.0628 73.1727C54.7485 73.1707 54.4343 73.1698 54.1201 73.1698C53.6408 73.169 53.1618 73.1619 52.6825 73.1545C52.3768 73.1533 52.0711 73.1525 51.7655 73.1522C51.6228 73.1494 51.4802 73.1466 51.3332 73.1437C50.3762 73.1522 49.8725 73.3201 49.2188 74.0235Z" fill="#0B0F14"/>
<path d="M51.5625 23.8281C51.5625 28.3398 51.5625 32.8515 51.5625 37.5C50.8404 37.3555 50.38 37.239 49.7391 36.9438C49.5792 36.8739 49.4193 36.804 49.2546 36.7321C48.9276 36.5875 48.6019 36.4396 48.2781 36.288C46.4151 35.4894 44.4464 35.4378 42.5285 36.1023C42.1156 36.2699 41.705 36.4431 41.2964 36.6211C41.0661 36.7163 40.8358 36.8116 40.5985 36.9097C39.9599 37.1741 39.3242 37.4448 38.6889 37.7168C37.9803 38.0189 37.2693 38.3152 36.5585 38.6123C35.6371 38.998 34.7163 39.3848 33.7969 39.7753C32.0896 40.5005 30.3784 41.2146 28.6598 41.9128C28.2938 42.0621 27.9277 42.2115 27.5617 42.3609C27.0308 42.5777 26.4997 42.7936 25.9675 43.0071C25.4758 43.2044 24.9853 43.4044 24.4949 43.605C24.3514 43.6617 24.2079 43.7183 24.06 43.7767C22.0556 44.605 20.7044 45.8676 19.8609 47.8759C19.5621 49.1253 19.5018 50.3384 19.5004 51.6152C19.4994 51.7934 19.4984 51.9716 19.4974 52.1552C19.4944 52.7502 19.4928 53.3452 19.4912 53.9401C19.4893 54.3675 19.4873 54.7949 19.4853 55.2223C19.48 56.3811 19.4759 57.5399 19.472 58.6988C19.4677 59.9104 19.4624 61.122 19.4572 62.3336C19.448 64.4969 19.4396 66.6602 19.4316 68.8235C19.4244 70.787 19.4168 72.7505 19.4087 74.714C19.4081 74.8445 19.4076 74.9749 19.407 75.1094C19.4024 76.2444 19.3977 77.3794 19.393 78.5143C19.3727 83.3976 19.3545 88.2808 19.336 93.164C12.9551 93.164 6.57423 93.164 1.50204e-05 93.164C-0.0172078 87.3617 -0.0316316 81.5593 -0.0398784 75.7569C-0.0408555 75.0719 -0.0418681 74.3869 -0.0429003 73.7019C-0.0431053 73.5655 -0.0433091 73.4292 -0.0435202 73.2887C-0.0469198 71.0805 -0.0530833 68.8723 -0.0602632 66.6641C-0.0675688 64.3983 -0.0718452 62.1326 -0.0734894 59.8668C-0.0745089 58.5941 -0.07691 57.3215 -0.0825851 56.0488C-0.0878819 54.8513 -0.0895249 53.6539 -0.0883489 52.4563C-0.0885641 52.0165 -0.090126 51.5767 -0.0931172 51.1369C-0.0969988 50.5368 -0.0960686 49.937 -0.0939338 49.3369C-0.0973473 49.0753 -0.0973476 49.0753 -0.10083 48.8084C-0.08841 47.5186 0.265166 46.7989 1.19754 45.8778C1.98501 45.3578 2.81867 45.0202 3.69112 44.6663C3.88164 44.5875 4.07216 44.5087 4.26846 44.4275C4.67644 44.259 5.08473 44.0913 5.49329 43.9242C6.13093 43.6633 6.76769 43.4004 7.40425 43.1369C9.13926 42.4193 10.876 41.7061 12.6142 40.996C13.1739 40.7669 13.7331 40.5363 14.2921 40.3054C14.6631 40.1529 15.0351 40.0029 15.4071 39.8529C17.2872 39.128 17.2872 39.128 18.5793 37.659C18.7932 36.9704 18.8035 36.3663 18.8103 35.6453C18.8152 35.36 18.8202 35.0748 18.8252 34.7896C18.8308 34.3439 18.8355 33.8982 18.8391 33.4525C18.8434 33.0196 18.8511 32.5869 18.8591 32.154C18.8617 31.8964 18.8644 31.6387 18.8671 31.3732C19.0084 30.092 19.5407 29.3701 20.5181 28.5841C21.1313 28.1588 21.7755 27.8818 22.4678 27.61C22.6193 27.548 22.7708 27.486 22.9268 27.4221C23.4257 27.2186 23.926 27.0187 24.4263 26.8188C24.7788 26.6757 25.1313 26.5323 25.4836 26.3887C26.2319 26.0839 26.9806 25.7803 27.7297 25.4776C28.9323 24.9906 30.1315 24.4957 31.3301 23.999C31.53 23.9162 31.7298 23.8334 31.9357 23.7481C32.3342 23.5829 32.7327 23.4178 33.1311 23.2526C34.4005 22.7264 35.6702 22.201 36.9417 21.6801C37.5457 21.4325 38.147 21.1799 38.7465 20.9216C39.0039 20.8129 39.2613 20.7042 39.5188 20.5955C39.7349 20.5023 39.951 20.409 40.1736 20.313C43.6919 19.2476 49.0089 22.7572 51.5625 23.8281Z" fill="#0B0F14"/>
</g>
<defs>
<clipPath id="clip0_1108_591">
<rect width="100" height="100" fill="white"/>
</clipPath>
</defs>
</svg>
