<svg width="25" height="15" viewBox="0 0 25 15" fill="none" xmlns="http://www.w3.org/2000/svg">
<path d="M14.8781 6.42562C14.9512 6.80422 15.0033 7.18281 15.0033 7.67391C15.0033 11.9611 12.0695 15 7.65306 15C3.42459 15 0 11.6439 0 7.5C0 3.35605 3.42459 0 7.65306 0C9.72034 0 11.443 0.73668 12.7795 1.96453L10.7017 3.91883C10.1379 3.38676 9.14609 2.76262 7.65306 2.76262C5.04289 2.76262 2.91295 4.88062 2.91295 7.5C2.91295 10.1194 5.04289 12.2374 7.65306 12.2374C10.6808 12.2374 11.8189 10.0989 11.9964 9.00406H7.65306V6.42559H14.8781V6.42562ZM22.2683 6.67707V4.5H20.0361V6.67707H17.8146V8.86461H20.0361V11.0417H22.2683V8.86461H24.4898V6.67707H22.2683Z" fill="#0B0F14"/>
</svg>
