<svg width="19" height="18" viewBox="0 0 19 18" fill="none" xmlns="http://www.w3.org/2000/svg">
<path d="M16.5917 6.10399C14.9325 6.10399 14.2542 4.93066 15.0792 3.49149C15.5558 2.65733 15.2717 1.59399 14.4375 1.11733L12.8517 0.209826C12.1275 -0.221007 11.1925 0.0356596 10.7617 0.759826L10.6608 0.933993C9.83583 2.37316 8.47917 2.37316 7.645 0.933993L7.54417 0.759826C7.13167 0.0356596 6.19667 -0.221007 5.4725 0.209826L3.88667 1.11733C3.0525 1.59399 2.76833 2.66649 3.245 3.50066C4.07917 4.93066 3.40083 6.10399 1.74167 6.10399C0.788333 6.10399 0 6.88316 0 7.84566V9.45899C0 10.4123 0.779167 11.2007 1.74167 11.2007C3.40083 11.2007 4.07917 12.374 3.245 13.8132C2.76833 14.6473 3.0525 15.7107 3.88667 16.1873L5.4725 17.0948C6.19667 17.5257 7.13167 17.269 7.5625 16.5448L7.66333 16.3707C8.48833 14.9315 9.845 14.9315 10.6792 16.3707L10.78 16.5448C11.2108 17.269 12.1458 17.5257 12.87 17.0948L14.4558 16.1873C15.29 15.7107 15.5742 14.6382 15.0975 13.8132C14.2633 12.374 14.9417 11.2007 16.6008 11.2007C17.5542 11.2007 18.3425 10.4215 18.3425 9.45899V7.84566C18.3333 6.89233 17.5542 6.10399 16.5917 6.10399ZM9.16667 11.6315C7.52583 11.6315 6.1875 10.2932 6.1875 8.65233C6.1875 7.01149 7.52583 5.67316 9.16667 5.67316C10.8075 5.67316 12.1458 7.01149 12.1458 8.65233C12.1458 10.2932 10.8075 11.6315 9.16667 11.6315Z" fill="#0B0F14"/>
</svg>
